<svg width="128" height="128" viewBox="0 0 128 128" fill="none" xmlns="http://www.w3.org/2000/svg">
<g clip-path="url(#clip0_500_2)">
<path d="M88 127C98.5766 127 108.303 120.138 115.437 108.725C122.425 97.5428 126.827 82.1167 126.992 65H79V64C79 46.4847 74.5608 30.6746 67.4365 19.2754C60.3034 7.86215 50.5765 1.00008 40 1C29.4235 1 19.6967 7.86145 12.5635 19.2744C5.57492 30.4561 1.17324 45.8826 1.00781 63H49V64C49 81.5153 53.4392 97.3254 60.5635 108.725C67.6966 120.138 77.4235 127 88 127Z" stroke="#010214" stroke-width="2"/>
<path d="M85.75 124C95.2662 124 104.057 117.503 110.523 106.622C116.847 95.98 120.835 81.2969 120.992 65H77.5V64C77.5 47.304 73.4756 32.2373 67.0225 21.3779C60.5565 10.4972 51.7662 4.00007 42.25 4C32.7338 4 23.9425 10.4963 17.4766 21.377C11.1525 32.0189 7.16494 46.7022 7.00781 63H50.5V64C50.5 80.696 54.5244 95.7627 60.9775 106.622C67.4435 117.503 76.2338 124 85.75 124Z" stroke="#1FC37E" stroke-width="2"/>
<path d="M83.5 122C91.9423 122 99.8004 115.775 105.605 105.236C111.271 94.9506 114.848 80.7571 114.993 65H76V64C76 47.8437 72.3899 33.2665 66.6045 22.7637C60.7995 12.2252 52.9422 6.00007 44.5 6C36.0577 6 28.1996 12.2244 22.3945 22.7627C16.7288 33.0482 13.1524 47.2421 13.0068 63H52V64C52 80.1563 55.6101 94.7335 61.3955 105.236C67.2005 115.775 75.0578 122 83.5 122Z" stroke="#67CF3A" stroke-width="2"/>
<path d="M81.25 119C88.6202 119 95.5463 113.159 100.689 103.141C105.694 93.392 108.858 79.9392 108.993 65H74.5V64C74.5 48.6617 71.3056 34.825 66.1895 24.8594C61.0463 14.8412 54.1202 9.00007 46.75 9C39.3798 9 32.4537 14.8405 27.3105 24.8584C22.3058 34.6069 19.1423 48.0601 19.0068 63H53.5V64C53.5 79.3383 56.6944 93.175 61.8105 103.141C66.9537 113.159 73.8798 119 81.25 119Z" stroke="#F7D80E" stroke-width="2"/>
<path d="M79.375 117C85.8407 117 91.9943 111.441 96.5908 101.755C101.048 92.3612 103.868 79.3977 103.993 65H73.25V64C73.25 49.2031 70.4014 35.8558 65.8408 26.2451C61.2444 16.5588 55.0907 11.0001 48.625 11C42.1592 11 36.0057 16.5589 31.4092 26.2451C26.9516 35.6387 24.132 48.6018 24.0068 63H54.75V64C54.75 78.7969 57.5986 92.1442 62.1592 101.755C66.7556 111.441 72.9093 117 79.375 117Z" stroke="#FFB221" stroke-width="2"/>
<path d="M77.5 114C80.2787 114 83.0032 112.728 85.5664 110.271C88.1346 107.808 90.4928 104.197 92.4951 99.6582C96.4028 90.8005 98.8789 78.578 98.9951 65H72V64C72 50.0227 69.4985 37.4164 65.4951 28.3418C63.4928 23.8031 61.1337 20.1917 58.5654 17.7295C56.0023 15.2723 53.2785 14 50.5 14C47.7213 14 44.9968 15.2721 42.4336 17.7295C39.8654 20.1916 37.5072 23.8023 35.5049 28.3408C31.5971 37.1984 29.1211 49.4212 29.0049 63H56V64C56 77.9773 58.5015 90.5836 62.5049 99.6582C64.5072 104.197 66.8663 107.808 69.4346 110.271C71.9977 112.728 74.7215 114 77.5 114Z" stroke="#FF6237" stroke-width="2"/>
<path d="M75.625 112C77.9322 112 80.2349 110.822 82.4365 108.467C84.6397 106.11 86.6697 102.645 88.3955 98.2803C91.759 89.7738 93.8911 78.0379 93.9951 65H70.75V64C70.75 50.5628 68.5947 38.4432 65.1455 29.7197C63.4197 25.3551 61.3897 21.89 59.1865 19.5332C56.9849 17.1781 54.6822 16 52.375 16C50.0678 16 47.7651 17.1782 45.5635 19.5332C43.3604 21.8898 41.3303 25.3543 39.6045 29.7188C36.241 38.2251 34.1089 49.9615 34.0049 63H57.25V64C57.25 77.4372 59.4053 89.5568 62.8545 98.2803C64.5803 102.645 66.6103 106.11 68.8135 108.467C71.0151 110.822 73.3178 112 75.625 112Z" stroke="#F54242" stroke-width="2"/>
<path d="M73.75 109C75.5806 109 77.4633 107.952 79.3076 105.744C81.1473 103.541 82.8494 100.294 84.2979 96.1934C87.1149 88.2186 88.9033 77.2202 88.9961 65H69.5V64C69.5 51.3804 67.6916 39.9984 64.7979 31.8066C63.3494 27.7063 61.6473 24.4586 59.8076 22.2559C57.9633 20.0477 56.0806 19 54.25 19C52.4194 19 50.5367 20.0477 48.6924 22.2559C46.8527 24.4585 45.1506 27.7054 43.7021 31.8057C40.885 39.7804 39.0967 50.7791 39.0039 63H58.5V64C58.5 76.6196 60.3084 88.0016 63.2021 96.1934C64.6506 100.294 66.3527 103.541 68.1924 105.744C70.0367 107.952 71.9194 109 73.75 109Z" stroke="#845DD9" stroke-width="2"/>
<path d="M71.875 107C73.1998 107 74.6653 106.095 76.167 103.966C77.6496 101.864 79.0252 98.7564 80.1973 94.8271C82.473 87.1979 83.9179 76.682 83.9961 65H68.25V64C68.25 51.9188 66.7877 41.0191 64.4473 33.1729C63.2752 29.2436 61.8996 26.1365 60.417 24.0342C58.9153 21.9049 57.4497 21 56.125 21C54.8002 21 53.3347 21.9049 51.833 24.0342C50.3504 26.1365 48.9748 29.2436 47.8027 33.1729C45.527 40.8019 44.0821 51.3175 44.0039 63H59.75V64C59.75 76.0812 61.2123 86.9809 63.5527 94.8271C64.7248 98.7564 66.1004 101.864 67.583 103.966C69.0847 106.095 70.5503 107 71.875 107Z" stroke="#3560E2" stroke-width="2"/>
<path d="M69.625 104.5C70.114 104.5 70.6319 104.285 71.1807 103.794C71.7324 103.3 72.2885 102.549 72.834 101.54C73.9246 99.5226 74.9227 96.5705 75.7666 92.8799C77.4276 85.6155 78.4667 75.5968 78.4971 64.5H67.25V64C67.25 52.7043 66.2025 42.4934 64.5166 35.1201C63.6727 31.4295 62.6746 28.4774 61.584 26.46C61.0385 25.451 60.4824 24.6998 59.9307 24.2061C59.382 23.715 58.864 23.5 58.375 23.5C57.8861 23.5 57.3679 23.7143 56.8193 24.2051C56.2676 24.6988 55.7115 25.451 55.166 26.46C54.0754 28.4773 53.0773 31.4295 52.2334 35.1201C50.5724 42.3843 49.5333 52.4029 49.5029 63.5H60.75V64C60.75 75.2957 61.7975 85.5066 63.4834 92.8799C64.3273 96.5705 65.3254 99.5226 66.416 101.54C66.9615 102.549 67.5176 103.3 68.0693 103.794C68.618 104.285 69.136 104.5 69.625 104.5Z" stroke="#1772E7"/>
<path d="M68.125 101.5C68.3983 101.5 68.7363 101.348 69.1357 100.896C69.5332 100.447 69.9405 99.7555 70.3418 98.8174C71.1427 96.9451 71.8747 94.2048 72.4941 90.7812C73.7118 84.051 74.474 74.774 74.498 64.5H66.25V64C66.25 53.5272 65.4815 44.0581 64.2441 37.2188C63.6247 33.7952 62.8927 31.0549 62.0918 29.1826C61.6905 28.2446 61.2831 27.553 60.8857 27.1035C60.4863 26.6518 60.1483 26.5 59.875 26.5C59.6017 26.5 59.2637 26.6518 58.8643 27.1035C58.4668 27.553 58.0595 28.2445 57.6582 29.1826C56.8573 31.0549 56.1253 33.7951 55.5059 37.2188C54.2882 43.9489 53.526 53.2256 53.502 63.5H61.75V64C61.75 74.4728 62.5185 83.9419 63.7559 90.7812C64.3753 94.2048 65.1073 96.9451 65.9082 98.8174C66.3095 99.7554 66.7169 100.447 67.1143 100.896C67.5137 101.348 67.8517 101.5 68.125 101.5Z" stroke="#010214"/>
<path fill-rule="evenodd" clip-rule="evenodd" d="M128 64C128 28.6543 110.092 0 88.0002 0C65.9086 0 48.0004 28.6543 48.0004 64H0C0 99.3472 17.9082 128 39.9998 128C62.0914 128 79.9996 99.3457 79.9996 64H128Z" fill="#010214"/>
<path fill-rule="evenodd" clip-rule="evenodd" d="M122 64C122 30.3111 105.771 3 85.7502 3C65.7296 3 49.5003 30.3111 49.5003 64H6C6 97.6903 22.2293 125 42.2498 125C62.2704 125 78.4997 97.6889 78.4997 64H122Z" fill="#1FC37E"/>
<path fill-rule="evenodd" clip-rule="evenodd" d="M116 64C116 31.4157 101.45 5 83.5001 5C65.5507 5 51.0003 31.4157 51.0003 64H12C12 96.5857 26.5504 123 44.4999 123C62.4493 123 76.9997 96.5843 76.9997 64H116Z" fill="#67CF3A"/>
<path fill-rule="evenodd" clip-rule="evenodd" d="M110 64C110 33.0725 97.1285 8 81.2501 8C65.3718 8 52.5003 33.0725 52.5003 64H18C18 94.9288 30.8715 120 46.7499 120C62.6282 120 75.4997 94.9275 75.4997 64H110Z" fill="#F7D80E"/>
<path fill-rule="evenodd" clip-rule="evenodd" d="M105 64C105 34.1771 93.5276 10 79.3751 10C65.2227 10 53.7502 34.1771 53.7502 64H23C23 93.8242 34.4724 118 48.6249 118C62.7773 118 74.2498 93.823 74.2498 64H105Z" fill="#FFB221"/>
<path fill-rule="evenodd" clip-rule="evenodd" d="M100 64C100 35.8339 89.9266 13 77.5001 13C65.0736 13 55.0002 35.8339 55.0002 64H28C28 92.1673 38.0734 115 50.4999 115C62.9264 115 72.9998 92.1661 72.9998 64H100Z" fill="#FF6237"/>
<path fill-rule="evenodd" clip-rule="evenodd" d="M95 64C95 36.9384 86.3257 15 75.6251 15C64.9245 15 56.2502 36.9384 56.2502 64H33C33 91.0627 41.6743 113 52.3749 113C63.0755 113 71.7498 91.0616 71.7498 64H95Z" fill="#F54242"/>
<path fill-rule="evenodd" clip-rule="evenodd" d="M90 64C90 38.5953 82.7248 18 73.7501 18C64.7754 18 57.5001 38.5953 57.5001 64H38C38 89.4058 45.2752 110 54.2499 110C63.2246 110 70.4999 89.4047 70.4999 64H90Z" fill="#845DD9"/>
<path fill-rule="evenodd" clip-rule="evenodd" d="M85 64C85 39.6998 79.1239 20 71.8751 20C64.6263 20 58.7501 39.6998 58.7501 64H43C43 88.3012 48.8761 108 56.1249 108C63.3738 108 69.2499 88.3002 69.2499 64H85Z" fill="#3560E2"/>
<path fill-rule="evenodd" clip-rule="evenodd" d="M80 64C80 41.3567 75.5229 23 70 23C64.4771 23 60.0001 41.3567 60.0001 64H48C48 86.6443 52.4771 105 58 105C63.5229 105 67.9999 86.6434 67.9999 64H80Z" fill="#1772E7"/>
<path fill-rule="evenodd" clip-rule="evenodd" d="M74 64C74 43.0135 71.2018 26 67.75 26C64.2982 26 61.5001 43.0135 61.5001 64H54C54 84.9874 56.7982 102 60.25 102C63.7018 102 66.4999 84.9865 66.4999 64H74Z" fill="#010214"/>
</g>
<defs>
<clipPath id="clip0_500_2">
<rect width="128" height="128" fill="white"/>
</clipPath>
</defs>
</svg>
